HIERARCHY
ROOT Hips
{
	OFFSET -3.958830 18.904000 13.208200
	CHANNELS 6 Xposition Yposition Zposition Zrotation Yrotation Xrotation 
	JOINT LHipJoint
	{
		OFFSET 0.000000 0.000000 0.000000
		CHANNELS 3 Zrotation Yrotation Xrotation
		JOINT LeftUpLeg
		{
			OFFSET 1.800000 -1.400000 0.085000
			CHANNELS 3 Zrotation Yrotation Xrotation
			JOINT LeftLeg
			{
				OFFSET 2.215000 -6.000000 0.000000
				CHANNELS 3 Zrotation Yrotation Xrotation
				JOINT LeftFoot
				{
					OFFSET 2.500000 -6.900000 0.000000
					CHANNELS 3 Zrotation Yrotation Xrotation
					JOINT LeftToeBase
					{
						OFFSET 0.200000 -0.500000 1.950000
						CHANNELS 3 Zrotation Yrotation Xrotation
						End Site
						{
							OFFSET 0.000000 0.000000 0.000000
						}
					}
				}
			}
		}
	}
	JOINT RHipJoint
	{
		OFFSET 0.000000 0.000000 0.000000
		CHANNELS 3 Zrotation Yrotation Xrotation
		JOINT RightUpLeg
		{
			OFFSET -1.800000 -1.400000 0.085000
			CHANNELS 3 Zrotation Yrotation Xrotation
			JOINT RightLeg
			{
				OFFSET -2.215000 -6.000000 0.000000
				CHANNELS 3 Zrotation Yrotation Xrotation
				JOINT RightFoot
				{
					OFFSET -2.500000 -6.900000 0.000000
					CHANNELS 3 Zrotation Yrotation Xrotation
					JOINT RightToeBase
					{
						OFFSET -0.200000 -0.500000 1.950000
						CHANNELS 3 Zrotation Yrotation Xrotation
						End Site
						{
							OFFSET 0.000000 0.000000 0.000000
						}
					}
				}
			}
		}
	}
	JOINT LowerBack
	{
		OFFSET 0.000000 0.000000 0.000000
		CHANNELS 3 Zrotation Yrotation Xrotation
		JOINT Spine
		{
			OFFSET -0.087000 1.940000 -0.288900
			CHANNELS 3 Zrotation Yrotation Xrotation
			JOINT Spine1
			{
				OFFSET 0.000000 1.950000 0.060000
				CHANNELS 3 Zrotation Yrotation Xrotation
				JOINT Neck
				{
					OFFSET 0.000000 0.000000 0.000000
					CHANNELS 3 Zrotation Yrotation Xrotation
					JOINT Neck1
					{
						OFFSET 0.000000 1.600000 0.340000
						CHANNELS 3 Zrotation Yrotation Xrotation
						JOINT Head
						{
							OFFSET 0.000000 1.667000 -0.240000
							CHANNELS 3 Zrotation Yrotation Xrotation
							End Site
							{
								OFFSET 0.000000 0.000000 0.000000
							}
						}
					}
				}
				JOINT LeftShoulder
				{
					OFFSET 0.000000 0.000000 0.000000
					CHANNELS 3 Zrotation Yrotation Xrotation
					JOINT LeftArm
					{
						OFFSET 2.700000 1.550000 -0.730000
						CHANNELS 3 Zrotation Yrotation Xrotation
						JOINT LeftForeArm
						{
							OFFSET 5.450000 0.000000 0.000000
							CHANNELS 3 Zrotation Yrotation Xrotation
							JOINT LeftHand
							{
								OFFSET 3.450000 0.000000 0.000000
								CHANNELS 3 Zrotation Yrotation Xrotation
								JOINT LeftHandIndex1
								{
									OFFSET 0.750000 0.000000 0.000000
									CHANNELS 3 Zrotation Yrotation Xrotation
									End Site
									{
										OFFSET 0.000000 0.000000 0.000000
									}
								}
							}
						}
					}
				}
				JOINT RightShoulder
				{
					OFFSET 0.000000 0.000000 0.000000
					CHANNELS 3 Zrotation Yrotation Xrotation
					JOINT RightArm
					{
						OFFSET -2.700000 1.550000 -0.730000
						CHANNELS 3 Zrotation Yrotation Xrotation
						JOINT RightForeArm
						{
							OFFSET -5.450000 0.000000 0.000000
							CHANNELS 3 Zrotation Yrotation Xrotation
							JOINT RightHand
							{
								OFFSET -3.450000 0.000000 0.000000
								CHANNELS 3 Zrotation Yrotation Xrotation
								JOINT RightHandIndex1
								{
									OFFSET -0.750000 0.000000 0.000000
									CHANNELS 3 Zrotation Yrotation Xrotation
									End Site
									{
										OFFSET 0.000000 0.000000 0.000000
									}
								}
							}
						}
					}
				}
			}
		}
	}
}
MOTION
Frames: 7
Frame Time: 0.016667
-3.195330 17.297640 -5.760200 -21.051901 -20.331129 -6.781266 -14.837599 12.316174 1.684485 15.541228 0.211980 -0.311990 -6.088814 6.661568 14.019501 -0.713199 5.688392 2.880791 0.680560 0.529400 0.259530 18.755845 -9.508820 5.223705 -31.487787 0.402254 -32.736801 99.008130 -55.125161 27.046743 -2.985284 -11.743703 0.709802 0.452690 0.724770 0.526360 -4.892105 -1.177110 -8.109048 29.557161 -10.705366 21.617829 -13.331893 -5.795057 18.990481 6.349981 -3.042777 -10.311083 -6.954950 -0.401625 32.659471 -2.651830 -4.584840 -21.722120 7.528175 -41.813306 1.585545 20.061281 -32.861826 -14.533894 42.225300 -31.315523 -12.825502 -4.459755 2.741420 0.698250 0.345400 0.174420 0.527890 -20.198173 39.867888 -1.215750 -25.613149 26.548668 -16.269140 -35.987577 28.560415 -9.289633 1.935701 -1.654887 -0.288370 0.746440 0.029060 0.037410 
-3.315560 17.586850 -5.703580 -21.708267 -20.718433 -7.808396 -14.891388 12.263448 1.897647 16.847884 0.731773 3.881018 -4.615877 5.757225 7.510328 -0.671862 5.740956 2.925182 0.595810 0.406550 0.230380 18.716811 -9.383179 5.078134 -31.571729 0.601296 -31.614873 100.767674 -55.067083 26.271708 -2.938239 -11.709831 0.717106 0.400240 0.760910 0.515570 -4.795571 -1.340042 -8.123233 30.630090 -11.272847 22.126035 -12.575459 -6.778354 19.584168 6.140745 -3.529740 -10.033834 -7.952134 -0.600482 32.852990 -3.369340 -5.002020 -20.958710 10.256332 -38.584770 2.159951 22.553069 -29.763395 -15.083820 49.047774 -30.450565 -14.645036 -4.580954 2.682002 0.708820 0.369460 0.124220 0.475740 -22.325592 36.902979 -0.471431 -28.217547 24.543360 -16.795306 -39.107509 29.503896 -10.216884 1.904308 -1.628520 -0.336260 0.761980 0.101030 0.010520 
-3.430800 17.872330 -5.662380 -22.062350 -21.102063 -8.135046 -14.915286 11.975081 2.095878 17.572356 0.839216 6.933046 -3.702762 5.170571 2.561075 -0.684130 5.959045 2.890914 0.638190 0.472300 0.244950 18.730371 -9.341637 4.957861 -31.387131 0.988345 -30.605308 101.411321 -54.336600 25.776323 -2.900415 -11.761412 0.696529 0.512160 0.821950 0.493840 -4.863936 -1.000361 -8.095172 32.056977 -11.499585 21.640616 -12.925004 -7.220126 21.220273 6.069421 -3.652176 -9.321554 -7.338318 -1.118936 29.712445 -4.249200 -5.276450 -20.012980 12.942648 -35.539420 2.152367 26.706437 -27.061643 -15.569575 52.189013 -28.621911 -14.811105 -4.688019 2.672625 0.659650 0.445850 0.060080 0.490740 -24.573096 33.642150 -0.237287 -29.752300 21.867761 -16.881206 -42.668999 29.352109 -11.529392 1.859611 -1.754039 -0.391710 0.825290 0.101790 -0.001950 
-3.544430 18.149380 -5.634930 -21.852041 -22.846669 -9.764908 -14.951057 12.052206 2.203195 18.613609 1.091769 9.603231 -3.639816 5.422260 2.326641 -0.503284 6.205557 2.781041 0.646870 0.468100 0.269350 18.668058 -9.224453 4.989620 -30.802180 2.723438 -29.088722 95.915024 -55.190629 30.077154 -2.949517 -11.846022 0.628971 0.448590 0.733240 0.542700 -4.762125 -1.222930 -8.132577 32.765273 -11.933000 24.856590 -13.729202 -7.209228 20.708102 6.127889 -3.932824 -9.468272 -8.001852 -0.802447 30.099238 -3.873730 -4.801260 -21.504650 13.998480 -32.963670 2.963495 32.393036 -22.890217 -16.064392 52.800075 -26.348525 -13.366122 -4.666750 2.746232 0.701600 0.374040 0.141440 0.473310 -25.877806 31.410592 0.689512 -33.540130 18.061502 -17.322656 -43.961440 26.388580 -10.700922 2.020075 -1.785227 -0.317480 0.735610 0.081260 0.003190 
-3.648130 18.388560 -5.604490 -22.241793 -23.604811 -9.902007 -14.909124 12.111075 2.021759 19.984877 0.936835 9.173710 -4.410565 6.172387 6.318644 -0.374701 6.202169 2.767783 0.710950 0.568230 0.309300 18.676194 -9.284924 5.113352 -29.296730 4.219285 -28.431619 88.434501 -55.550674 35.047314 -3.026254 -12.078415 0.583269 0.445280 0.636140 0.512290 -4.855542 -1.057260 -8.068860 35.319467 -13.076023 26.148169 -15.874613 -7.129118 19.123791 6.084952 -4.225130 -9.546737 -8.517768 -0.706073 29.837788 -3.178960 -4.343640 -22.026170 14.816040 -30.092553 3.605247 37.255501 -19.614756 -15.597257 52.517998 -24.442565 -11.708027 -4.506098 2.801228 0.682600 0.294880 0.211480 0.526190 -26.840868 28.722409 1.175044 -37.180401 14.724852 -16.521527 -44.485733 25.658204 -10.025214 2.165853 -1.847870 -0.244910 0.673530 -0.044610 0.039540 
-3.774110 18.610320 -5.573680 -22.332645 -25.235448 -9.910514 -14.916428 12.218782 1.855063 21.605583 0.861715 8.094657 -6.251663 7.630632 12.386706 -0.334481 6.521394 2.555540 0.821050 0.682370 0.389670 18.643300 -9.213091 5.276904 -27.899065 6.170590 -27.674175 79.443812 -55.647653 41.358243 -3.160116 -12.533571 0.401883 0.480680 0.478060 0.526050 -4.832256 -1.133336 -8.059927 36.187908 -13.680974 28.197496 -17.097169 -6.897413 17.346330 5.952872 -4.378677 -9.490815 -8.485793 -0.662061 28.749419 -2.182040 -3.961630 -24.642220 15.328783 -27.285731 3.766407 41.338112 -15.370786 -14.366495 52.531834 -22.811181 -10.371938 -4.348780 2.902437 0.742920 0.185500 0.297400 0.517410 -27.213364 26.513699 1.541118 -39.549274 12.383305 -16.167099 -45.440185 23.358333 -9.470656 2.274393 -1.907931 -0.177990 0.562800 -0.122900 0.017280 
-3.910210 18.822190 -5.556570 -20.784090 -25.331331 -11.369375 -14.970408 12.481177 1.810960 22.460606 0.714845 5.962536 -8.522311 9.986126 20.619358 -0.246147 7.409759 2.201688 0.766040 0.617810 0.373350 18.568471 -9.076867 5.264952 -28.017050 6.752786 -25.286239 70.551102 -53.099977 45.645713 -3.181980 -12.911961 0.280316 0.451770 0.503430 0.534080 -4.584478 -1.700747 -8.053180 33.505196 -13.247466 31.030928 -15.861200 -6.889585 16.070618 5.410017 -3.949746 -9.593304 -7.640367 0.051165 27.505579 -2.869250 -2.761740 -24.562660 16.340873 -25.854155 3.664272 45.260512 -11.941281 -13.494083 50.215608 -19.442021 -8.286172 -4.462738 2.863571 0.755210 0.212050 0.286430 0.493010 -27.228376 25.047293 2.464905 -40.555771 8.752106 -15.666167 -47.967187 21.361299 -9.398054 2.322649 -1.889870 -0.208940 0.570580 -0.085880 -0.000680 
